# Tiled2Unity generated file. Do not modify by hand.
# Wavefront file for 'house_mesh_0002.obj'

# Vertices (Count = 144)
v -320 -384 0
v -336 -384 0
v -336 -368 0
v -320 -368 0
v -256 -384 0
v -272 -384 0
v -272 -368 0
v -256 -368 0
v -240 -384 0
v -256 -384 0
v -256 -368 0
v -240 -368 0
v -224 -384 0
v -240 -384 0
v -240 -368 0
v -224 -368 0
v -384 -400 0
v -400 -400 0
v -400 -384 0
v -384 -384 0
v -368 -400 0
v -384 -400 0
v -384 -384 0
v -368 -384 0
v -320 -400 0
v -336 -400 0
v -336 -384 0
v -320 -384 0
v -256 -400 0
v -272 -400 0
v -272 -384 0
v -256 -384 0
v -240 -400 0
v -256 -400 0
v -256 -384 0
v -240 -384 0
v -224 -400 0
v -240 -400 0
v -240 -384 0
v -224 -384 0
v -432 -416 0
v -448 -416 0
v -448 -400 0
v -432 -400 0
v -416 -416 0
v -432 -416 0
v -432 -400 0
v -416 -400 0
v -400 -416 0
v -416 -416 0
v -416 -400 0
v -400 -400 0
v -432 -432 0
v -448 -432 0
v -448 -416 0
v -432 -416 0
v -416 -432 0
v -432 -432 0
v -432 -416 0
v -416 -416 0
v -400 -432 0
v -416 -432 0
v -416 -416 0
v -400 -416 0
v -432 -448 0
v -448 -448 0
v -448 -432 0
v -432 -432 0
v -416 -448 0
v -432 -448 0
v -432 -432 0
v -416 -432 0
v -400 -448 0
v -416 -448 0
v -416 -432 0
v -400 -432 0
v -352 -496 0
v -368 -496 0
v -368 -480 0
v -352 -480 0
v -336 -496 0
v -352 -496 0
v -352 -480 0
v -336 -480 0
v -320 -496 0
v -336 -496 0
v -336 -480 0
v -320 -480 0
v -304 -496 0
v -320 -496 0
v -320 -480 0
v -304 -480 0
v -288 -496 0
v -304 -496 0
v -304 -480 0
v -288 -480 0
v -352 -512 0
v -368 -512 0
v -368 -496 0
v -352 -496 0
v -336 -512 0
v -352 -512 0
v -352 -496 0
v -336 -496 0
v -320 -512 0
v -336 -512 0
v -336 -496 0
v -320 -496 0
v -304 -512 0
v -320 -512 0
v -320 -496 0
v -304 -496 0
v -288 -512 0
v -304 -512 0
v -304 -496 0
v -288 -496 0
v -352 -528 0
v -368 -528 0
v -368 -512 0
v -352 -512 0
v -336 -528 0
v -352 -528 0
v -352 -512 0
v -336 -512 0
v -320 -528 0
v -336 -528 0
v -336 -512 0
v -320 -512 0
v -304 -528 0
v -320 -528 0
v -320 -512 0
v -304 -512 0
v -288 -528 0
v -304 -528 0
v -304 -512 0
v -288 -512 0
v -336 -624 0
v -352 -624 0
v -352 -608 0
v -336 -608 0
v -320 -624 0
v -336 -624 0
v -336 -608 0
v -320 -608 0

# Texture cooridinates (Count = 80)
vt 0.225 0.96
vt 0.25 0.96
vt 0.25 1
vt 0.225 1
vt 0.125 0.48
vt 0.15 0.48
vt 0.15 0.52
vt 0.125 0.52
vt 0.1 0.48
vt 0.1 0.52
vt 0.075 0.48
vt 0.075 0.52
vt 0.275 0.48
vt 0.3 0.48
vt 0.3 0.52
vt 0.275 0.52
vt 0.25 0.48
vt 0.25 0.52
vt 0.225 0.92
vt 0.25 0.92
vt 0.125 0.44
vt 0.15 0.44
vt 0.1 0.44
vt 0.075 0.44
vt 0.525 0.92
vt 0.55 0.92
vt 0.55 0.96
vt 0.525 0.96
vt 0.5 0.92
vt 0.5 0.96
vt 0 0.68
vt 0.025 0.68
vt 0.025 0.72
vt 0 0.72
vt 0.525 0.88
vt 0.55 0.88
vt 0.5 0.88
vt 0 0.64
vt 0.025 0.64
vt 0.525 0.84
vt 0.55 0.84
vt 0.5 0.84
vt 0 0.6
vt 0.025 0.6
vt 0.45 0.8
vt 0.475 0.8
vt 0.475 0.84
vt 0.45 0.84
vt 0.3 0.92
vt 0.325 0.92
vt 0.325 0.96
vt 0.3 0.96
vt 0.275 0.92
vt 0.275 0.96
vt 0.4 0.8
vt 0.425 0.8
vt 0.425 0.84
vt 0.4 0.84
vt 0.45 0.76
vt 0.475 0.76
vt 0.3 0.88
vt 0.325 0.88
vt 0.275 0.88
vt 0.25 0.88
vt 0.4 0.76
vt 0.425 0.76
vt 0.45 0.72
vt 0.475 0.72
vt 0.3 0.84
vt 0.325 0.84
vt 0.275 0.84
vt 0.25 0.84
vt 0.4 0.72
vt 0.425 0.72
vt 0.175 0.92
vt 0.2 0.92
vt 0.2 0.96
vt 0.175 0.96
vt 0.15 0.92
vt 0.15 0.96

# Normal
vn 0 0 -1

# Mesh description
g house_mesh_0002

# Faces
f 1/1/1 2/2/1 3/3/1 4/4/1
f 5/5/1 6/6/1 7/7/1 8/8/1
f 9/9/1 10/5/1 11/8/1 12/10/1
f 13/11/1 14/9/1 15/10/1 16/12/1
f 17/13/1 18/14/1 19/15/1 20/16/1
f 21/17/1 22/13/1 23/16/1 24/18/1
f 25/19/1 26/20/1 27/2/1 28/1/1
f 29/21/1 30/22/1 31/6/1 32/5/1
f 33/23/1 34/21/1 35/5/1 36/9/1
f 37/24/1 38/23/1 39/9/1 40/11/1
f 41/25/1 42/26/1 43/27/1 44/28/1
f 45/29/1 46/25/1 47/28/1 48/30/1
f 49/31/1 50/32/1 51/33/1 52/34/1
f 53/35/1 54/36/1 55/26/1 56/25/1
f 57/37/1 58/35/1 59/25/1 60/29/1
f 61/38/1 62/39/1 63/32/1 64/31/1
f 65/40/1 66/41/1 67/36/1 68/35/1
f 69/42/1 70/40/1 71/35/1 72/37/1
f 73/43/1 74/44/1 75/39/1 76/38/1
f 77/45/1 78/46/1 79/47/1 80/48/1
f 81/49/1 82/50/1 83/51/1 84/52/1
f 85/53/1 86/49/1 87/52/1 88/54/1
f 89/20/1 90/53/1 91/54/1 92/2/1
f 93/55/1 94/56/1 95/57/1 96/58/1
f 97/59/1 98/60/1 99/46/1 100/45/1
f 101/61/1 102/62/1 103/50/1 104/49/1
f 105/63/1 106/61/1 107/49/1 108/53/1
f 109/64/1 110/63/1 111/53/1 112/20/1
f 113/65/1 114/66/1 115/56/1 116/55/1
f 117/67/1 118/68/1 119/60/1 120/59/1
f 121/69/1 122/70/1 123/62/1 124/61/1
f 125/71/1 126/69/1 127/61/1 128/63/1
f 129/72/1 130/71/1 131/63/1 132/64/1
f 133/73/1 134/74/1 135/66/1 136/65/1
f 137/75/1 138/76/1 139/77/1 140/78/1
f 141/79/1 142/75/1 143/78/1 144/80/1

