# Tiled2Unity generated file. Do not modify by hand.
# Wavefront file for 'island2_mesh_0003.obj'

# Vertices (Count = 360)
v -986 -289 0
v -1002 -289 0
v -1002 -273 0
v -986 -273 0
v -969 -289 0
v -985 -289 0
v -985 -273 0
v -969 -273 0
v -952 -289 0
v -968 -289 0
v -968 -273 0
v -952 -273 0
v -935 -289 0
v -951 -289 0
v -951 -273 0
v -935 -273 0
v -986 -306 0
v -1002 -306 0
v -1002 -290 0
v -986 -290 0
v -969 -306 0
v -985 -306 0
v -985 -290 0
v -969 -290 0
v -952 -306 0
v -968 -306 0
v -968 -290 0
v -952 -290 0
v -935 -306 0
v -951 -306 0
v -951 -290 0
v -935 -290 0
v -986 -323 0
v -1002 -323 0
v -1002 -307 0
v -986 -307 0
v -969 -323 0
v -985 -323 0
v -985 -307 0
v -969 -307 0
v -935 -323 0
v -951 -323 0
v -951 -307 0
v -935 -307 0
v -918 -323 0
v -934 -323 0
v -934 -307 0
v -918 -307 0
v -935 -340 0
v -951 -340 0
v -951 -324 0
v -935 -324 0
v -918 -340 0
v -934 -340 0
v -934 -324 0
v -918 -324 0
v -952 -357 0
v -968 -357 0
v -968 -341 0
v -952 -341 0
v -867 -357 0
v -883 -357 0
v -883 -341 0
v -867 -341 0
v -850 -357 0
v -866 -357 0
v -866 -341 0
v -850 -341 0
v -867 -374 0
v -883 -374 0
v -883 -358 0
v -867 -358 0
v -850 -374 0
v -866 -374 0
v -866 -358 0
v -850 -358 0
v -833 -374 0
v -849 -374 0
v -849 -358 0
v -833 -358 0
v -816 -374 0
v -832 -374 0
v -832 -358 0
v -816 -358 0
v -867 -391 0
v -883 -391 0
v -883 -375 0
v -867 -375 0
v -850 -391 0
v -866 -391 0
v -866 -375 0
v -850 -375 0
v -833 -391 0
v -849 -391 0
v -849 -375 0
v -833 -375 0
v -816 -391 0
v -832 -391 0
v -832 -375 0
v -816 -375 0
v -867 -408 0
v -883 -408 0
v -883 -392 0
v -867 -392 0
v -850 -408 0
v -866 -408 0
v -866 -392 0
v -850 -392 0
v -1003 -425 0
v -1019 -425 0
v -1019 -409 0
v -1003 -409 0
v -986 -425 0
v -1002 -425 0
v -1002 -409 0
v -986 -409 0
v -884 -425 0
v -900 -425 0
v -900 -409 0
v -884 -409 0
v -867 -425 0
v -883 -425 0
v -883 -409 0
v -867 -409 0
v -833 -425 0
v -849 -425 0
v -849 -409 0
v -833 -409 0
v -816 -425 0
v -832 -425 0
v -832 -409 0
v -816 -409 0
v -799 -425 0
v -815 -425 0
v -815 -409 0
v -799 -409 0
v -782 -425 0
v -798 -425 0
v -798 -409 0
v -782 -409 0
v -765 -425 0
v -781 -425 0
v -781 -409 0
v -765 -409 0
v -1003 -442 0
v -1019 -442 0
v -1019 -426 0
v -1003 -426 0
v -986 -442 0
v -1002 -442 0
v -1002 -426 0
v -986 -426 0
v -884 -442 0
v -900 -442 0
v -900 -426 0
v -884 -426 0
v -867 -442 0
v -883 -442 0
v -883 -426 0
v -867 -426 0
v -833 -442 0
v -849 -442 0
v -849 -426 0
v -833 -426 0
v -816 -442 0
v -832 -442 0
v -832 -426 0
v -816 -426 0
v -799 -442 0
v -815 -442 0
v -815 -426 0
v -799 -426 0
v -782 -442 0
v -798 -442 0
v -798 -426 0
v -782 -426 0
v -765 -442 0
v -781 -442 0
v -781 -426 0
v -765 -426 0
v -969 -459 0
v -985 -459 0
v -985 -443 0
v -969 -443 0
v -952 -459 0
v -968 -459 0
v -968 -443 0
v -952 -443 0
v -833 -459 0
v -849 -459 0
v -849 -443 0
v -833 -443 0
v -816 -459 0
v -832 -459 0
v -832 -443 0
v -816 -443 0
v -799 -459 0
v -815 -459 0
v -815 -443 0
v -799 -443 0
v -765 -459 0
v -781 -459 0
v -781 -443 0
v -765 -443 0
v -748 -459 0
v -764 -459 0
v -764 -443 0
v -748 -443 0
v -969 -476 0
v -985 -476 0
v -985 -460 0
v -969 -460 0
v -952 -476 0
v -968 -476 0
v -968 -460 0
v -952 -460 0
v -918 -476 0
v -934 -476 0
v -934 -460 0
v -918 -460 0
v -816 -476 0
v -832 -476 0
v -832 -460 0
v -816 -460 0
v -799 -476 0
v -815 -476 0
v -815 -460 0
v -799 -460 0
v -765 -476 0
v -781 -476 0
v -781 -460 0
v -765 -460 0
v -748 -476 0
v -764 -476 0
v -764 -460 0
v -748 -460 0
v -969 -493 0
v -985 -493 0
v -985 -477 0
v -969 -477 0
v -952 -493 0
v -968 -493 0
v -968 -477 0
v -952 -477 0
v -816 -493 0
v -832 -493 0
v -832 -477 0
v -816 -477 0
v -799 -493 0
v -815 -493 0
v -815 -477 0
v -799 -477 0
v -1003 -510 0
v -1019 -510 0
v -1019 -494 0
v -1003 -494 0
v -986 -510 0
v -1002 -510 0
v -1002 -494 0
v -986 -494 0
v -1003 -527 0
v -1019 -527 0
v -1019 -511 0
v -1003 -511 0
v -986 -527 0
v -1002 -527 0
v -1002 -511 0
v -986 -511 0
v -765 -527 0
v -781 -527 0
v -781 -511 0
v -765 -511 0
v -748 -527 0
v -764 -527 0
v -764 -511 0
v -748 -511 0
v -935 -544 0
v -951 -544 0
v -951 -528 0
v -935 -528 0
v -765 -544 0
v -781 -544 0
v -781 -528 0
v -765 -528 0
v -748 -544 0
v -764 -544 0
v -764 -528 0
v -748 -528 0
v -816 -561 0
v -832 -561 0
v -832 -545 0
v -816 -545 0
v -782 -561 0
v -798 -561 0
v -798 -545 0
v -782 -545 0
v -901 -578 0
v -917 -578 0
v -917 -562 0
v -901 -562 0
v -901 -595 0
v -917 -595 0
v -917 -579 0
v -901 -579 0
v -850 -595 0
v -866 -595 0
v -866 -579 0
v -850 -579 0
v -833 -595 0
v -849 -595 0
v -849 -579 0
v -833 -579 0
v -816 -595 0
v -832 -595 0
v -832 -579 0
v -816 -579 0
v -799 -629 0
v -815 -629 0
v -815 -613 0
v -799 -613 0
v -1003 -663 0
v -1019 -663 0
v -1019 -647 0
v -1003 -647 0
v -986 -680 0
v -1002 -680 0
v -1002 -664 0
v -986 -664 0
v -1020 -697 0
v -1036 -697 0
v -1036 -681 0
v -1020 -681 0
v -1003 -697 0
v -1019 -697 0
v -1019 -681 0
v -1003 -681 0
v -731 -697 0
v -747 -697 0
v -747 -681 0
v -731 -681 0
v -714 -697 0
v -730 -697 0
v -730 -681 0
v -714 -681 0
v -1020 -714 0
v -1036 -714 0
v -1036 -698 0
v -1020 -698 0
v -1003 -714 0
v -1019 -714 0
v -1019 -698 0
v -1003 -698 0
v -731 -714 0
v -747 -714 0
v -747 -698 0
v -731 -698 0
v -714 -714 0
v -730 -714 0
v -730 -698 0
v -714 -698 0

# Texture cooridinates (Count = 97)
vt 0.35 0.8333333
vt 0.375 0.8333333
vt 0.375 0.8611111
vt 0.35 0.8611111
vt 0.325 0.8333333
vt 0.325 0.8611111
vt 0.15 0.5277778
vt 0.175 0.5277778
vt 0.175 0.5555556
vt 0.15 0.5555556
vt 0.125 0.5277778
vt 0.125 0.5555556
vt 0.35 0.8055556
vt 0.375 0.8055556
vt 0.325 0.8055556
vt 0.15 0.5
vt 0.175 0.5
vt 0.125 0.5
vt 0.35 0.7777778
vt 0.375 0.7777778
vt 0.325 0.7777778
vt 0.125 0.9444444
vt 0.15 0.9444444
vt 0.15 0.9722222
vt 0.125 0.9722222
vt 0.1 0.9444444
vt 0.1 0.9722222
vt 0.125 0.9166667
vt 0.15 0.9166667
vt 0.1 0.9166667
vt 0.2 0.8333333
vt 0.225 0.8333333
vt 0.225 0.8611111
vt 0.2 0.8611111
vt 0.325 0.2777778
vt 0.35 0.2777778
vt 0.35 0.3055556
vt 0.325 0.3055556
vt 0.3 0.2777778
vt 0.3 0.3055556
vt 0.275 0.2777778
vt 0.275 0.3055556
vt 0.325 0.25
vt 0.35 0.25
vt 0.3 0.25
vt 0.275 0.25
vt 0.325 0.2222222
vt 0.35 0.2222222
vt 0.3 0.2222222
vt 0.275 0.2222222
vt 0.25 0.8333333
vt 0.275 0.8333333
vt 0.275 0.8611111
vt 0.25 0.8611111
vt 0.8 0.8888889
vt 0.825 0.8888889
vt 0.825 0.9166667
vt 0.8 0.9166667
vt 0.775 0.8888889
vt 0.775 0.9166667
vt 0.8 0.8611111
vt 0.825 0.8611111
vt 0.775 0.8611111
vt 0 0.75
vt 0.025 0.75
vt 0.025 0.7777778
vt 0 0.7777778
vt 0.025 0.9722222
vt 0.05 0.9722222
vt 0.05 1
vt 0.025 1
vt 0.125 0.8333333
vt 0.15 0.8333333
vt 0.15 0.8611111
vt 0.125 0.8611111
vt 0.1 0.8333333
vt 0.1 0.8611111
vt 0.075 0.8333333
vt 0.075 0.8611111
vt 0.125 1
vt 0.1 1
vt 0.275 0.6944444
vt 0.3 0.6944444
vt 0.3 0.7222222
vt 0.275 0.7222222
vt 0.3 0.7777778
vt 0.3 0.8055556
vt 0.275 0.7777778
vt 0.275 0.8055556
vt 0.35 0.75
vt 0.375 0.75
vt 0.325 0.75
vt 0.3 0.75
vt 0.275 0.75
vt 0.35 0.7222222
vt 0.375 0.7222222
vt 0.325 0.7222222

# Normal
vn 0 0 -1

# Mesh description
g island2_mesh_0003

# Faces
f 1/1/1 2/2/1 3/3/1 4/4/1
f 5/5/1 6/1/1 7/4/1 8/6/1
f 9/7/1 10/8/1 11/9/1 12/10/1
f 13/11/1 14/7/1 15/10/1 16/12/1
f 17/13/1 18/14/1 19/2/1 20/1/1
f 21/15/1 22/13/1 23/1/1 24/5/1
f 25/16/1 26/17/1 27/8/1 28/7/1
f 29/18/1 30/16/1 31/7/1 32/11/1
f 33/19/1 34/20/1 35/14/1 36/13/1
f 37/21/1 38/19/1 39/13/1 40/15/1
f 41/22/1 42/23/1 43/24/1 44/25/1
f 45/26/1 46/22/1 47/25/1 48/27/1
f 49/28/1 50/29/1 51/23/1 52/22/1
f 53/30/1 54/28/1 55/22/1 56/26/1
f 57/31/1 58/32/1 59/33/1 60/34/1
f 61/7/1 62/8/1 63/9/1 64/10/1
f 65/11/1 66/7/1 67/10/1 68/12/1
f 69/16/1 70/17/1 71/8/1 72/7/1
f 73/18/1 74/16/1 75/7/1 76/11/1
f 77/7/1 78/8/1 79/9/1 80/10/1
f 81/11/1 82/7/1 83/10/1 84/12/1
f 85/7/1 86/8/1 87/9/1 88/10/1
f 89/11/1 90/7/1 91/10/1 92/12/1
f 93/16/1 94/17/1 95/8/1 96/7/1
f 97/18/1 98/16/1 99/7/1 100/11/1
f 101/16/1 102/17/1 103/8/1 104/7/1
f 105/18/1 106/16/1 107/7/1 108/11/1
f 109/7/1 110/8/1 111/9/1 112/10/1
f 113/11/1 114/7/1 115/10/1 116/12/1
f 117/7/1 118/8/1 119/9/1 120/10/1
f 121/11/1 122/7/1 123/10/1 124/12/1
f 125/35/1 126/36/1 127/37/1 128/38/1
f 129/39/1 130/35/1 131/38/1 132/40/1
f 133/41/1 134/39/1 135/40/1 136/42/1
f 137/7/1 138/8/1 139/9/1 140/10/1
f 141/11/1 142/7/1 143/10/1 144/12/1
f 145/16/1 146/17/1 147/8/1 148/7/1
f 149/18/1 150/16/1 151/7/1 152/11/1
f 153/16/1 154/17/1 155/8/1 156/7/1
f 157/18/1 158/16/1 159/7/1 160/11/1
f 161/43/1 162/44/1 163/36/1 164/35/1
f 165/45/1 166/43/1 167/35/1 168/39/1
f 169/46/1 170/45/1 171/39/1 172/41/1
f 173/16/1 174/17/1 175/8/1 176/7/1
f 177/18/1 178/16/1 179/7/1 180/11/1
f 181/1/1 182/2/1 183/3/1 184/4/1
f 185/5/1 186/1/1 187/4/1 188/6/1
f 189/47/1 190/48/1 191/44/1 192/43/1
f 193/49/1 194/47/1 195/43/1 196/45/1
f 197/50/1 198/49/1 199/45/1 200/46/1
f 201/7/1 202/8/1 203/9/1 204/10/1
f 205/11/1 206/7/1 207/10/1 208/12/1
f 209/13/1 210/14/1 211/2/1 212/1/1
f 213/15/1 214/13/1 215/1/1 216/5/1
f 217/51/1 218/52/1 219/53/1 220/54/1
f 221/22/1 222/23/1 223/24/1 224/25/1
f 225/26/1 226/22/1 227/25/1 228/27/1
f 229/16/1 230/17/1 231/8/1 232/7/1
f 233/18/1 234/16/1 235/7/1 236/11/1
f 237/19/1 238/20/1 239/14/1 240/13/1
f 241/21/1 242/19/1 243/13/1 244/15/1
f 245/28/1 246/29/1 247/23/1 248/22/1
f 249/30/1 250/28/1 251/22/1 252/26/1
f 253/55/1 254/56/1 255/57/1 256/58/1
f 257/59/1 258/55/1 259/58/1 260/60/1
f 261/61/1 262/62/1 263/56/1 264/55/1
f 265/63/1 266/61/1 267/55/1 268/59/1
f 269/7/1 270/8/1 271/9/1 272/10/1
f 273/11/1 274/7/1 275/10/1 276/12/1
f 277/31/1 278/32/1 279/33/1 280/34/1
f 281/16/1 282/17/1 283/8/1 284/7/1
f 285/18/1 286/16/1 287/7/1 288/11/1
f 289/64/1 290/65/1 291/66/1 292/67/1
f 293/51/1 294/52/1 295/53/1 296/54/1
f 297/64/1 298/65/1 299/66/1 300/67/1
f 301/68/1 302/69/1 303/70/1 304/71/1
f 305/72/1 306/73/1 307/74/1 308/75/1
f 309/76/1 310/72/1 311/75/1 312/77/1
f 313/78/1 314/76/1 315/77/1 316/79/1
f 317/68/1 318/69/1 319/70/1 320/71/1
f 321/27/1 322/25/1 323/80/1 324/81/1
f 325/82/1 326/83/1 327/84/1 328/85/1
f 329/86/1 330/21/1 331/15/1 332/87/1
f 333/88/1 334/86/1 335/87/1 336/89/1
f 337/90/1 338/91/1 339/20/1 340/19/1
f 341/92/1 342/90/1 343/19/1 344/21/1
f 345/93/1 346/92/1 347/21/1 348/86/1
f 349/94/1 350/93/1 351/86/1 352/88/1
f 353/95/1 354/96/1 355/91/1 356/90/1
f 357/97/1 358/95/1 359/90/1 360/92/1

