# Tiled2Unity generated file. Do not modify by hand.
# Wavefront file for 'cave_mesh_0002.obj'

# Vertices (Count = 468)
v -640 -368 0
v -656 -368 0
v -656 -352 0
v -640 -352 0
v -624 -368 0
v -640 -368 0
v -640 -352 0
v -624 -352 0
v -608 -368 0
v -624 -368 0
v -624 -352 0
v -608 -352 0
v -592 -368 0
v -608 -368 0
v -608 -352 0
v -592 -352 0
v -576 -368 0
v -592 -368 0
v -592 -352 0
v -576 -352 0
v -560 -368 0
v -576 -368 0
v -576 -352 0
v -560 -352 0
v -544 -368 0
v -560 -368 0
v -560 -352 0
v -544 -352 0
v -528 -368 0
v -544 -368 0
v -544 -352 0
v -528 -352 0
v -512 -368 0
v -528 -368 0
v -528 -352 0
v -512 -352 0
v -640 -384 0
v -656 -384 0
v -656 -368 0
v -640 -368 0
v -512 -384 0
v -528 -384 0
v -528 -368 0
v -512 -368 0
v -640 -400 0
v -656 -400 0
v -656 -384 0
v -640 -384 0
v -512 -400 0
v -528 -400 0
v -528 -384 0
v -512 -384 0
v -656 -416 0
v -672 -416 0
v -672 -400 0
v -656 -400 0
v -640 -416 0
v -656 -416 0
v -656 -400 0
v -640 -400 0
v -624 -416 0
v -640 -416 0
v -640 -400 0
v -624 -400 0
v -608 -416 0
v -624 -416 0
v -624 -400 0
v -608 -400 0
v -592 -416 0
v -608 -416 0
v -608 -400 0
v -592 -400 0
v -576 -416 0
v -592 -416 0
v -592 -400 0
v -576 -400 0
v -560 -416 0
v -576 -416 0
v -576 -400 0
v -560 -400 0
v -544 -416 0
v -560 -416 0
v -560 -400 0
v -544 -400 0
v -528 -416 0
v -544 -416 0
v -544 -400 0
v -528 -400 0
v -512 -416 0
v -528 -416 0
v -528 -400 0
v -512 -400 0
v -496 -416 0
v -512 -416 0
v -512 -400 0
v -496 -400 0
v -656 -432 0
v -672 -432 0
v -672 -416 0
v -656 -416 0
v -608 -432 0
v -624 -432 0
v -624 -416 0
v -608 -416 0
v -576 -432 0
v -592 -432 0
v -592 -416 0
v -576 -416 0
v -560 -432 0
v -576 -432 0
v -576 -416 0
v -560 -416 0
v -544 -432 0
v -560 -432 0
v -560 -416 0
v -544 -416 0
v -496 -432 0
v -512 -432 0
v -512 -416 0
v -496 -416 0
v -672 -448 0
v -688 -448 0
v -688 -432 0
v -672 -432 0
v -656 -448 0
v -672 -448 0
v -672 -432 0
v -656 -432 0
v -576 -448 0
v -592 -448 0
v -592 -432 0
v -576 -432 0
v -560 -448 0
v -576 -448 0
v -576 -432 0
v -560 -432 0
v -544 -448 0
v -560 -448 0
v -560 -432 0
v -544 -432 0
v -496 -448 0
v -512 -448 0
v -512 -432 0
v -496 -432 0
v -480 -448 0
v -496 -448 0
v -496 -432 0
v -480 -432 0
v -688 -464 0
v -704 -464 0
v -704 -448 0
v -688 -448 0
v -672 -464 0
v -688 -464 0
v -688 -448 0
v -672 -448 0
v -656 -464 0
v -672 -464 0
v -672 -448 0
v -656 -448 0
v -640 -464 0
v -656 -464 0
v -656 -448 0
v -640 -448 0
v -624 -464 0
v -640 -464 0
v -640 -448 0
v -624 -448 0
v -480 -464 0
v -496 -464 0
v -496 -448 0
v -480 -448 0
v -464 -464 0
v -480 -464 0
v -480 -448 0
v -464 -448 0
v -688 -480 0
v -704 -480 0
v -704 -464 0
v -688 -464 0
v -656 -480 0
v -672 -480 0
v -672 -464 0
v -656 -464 0
v -640 -480 0
v -656 -480 0
v -656 -464 0
v -640 -464 0
v -624 -480 0
v -640 -480 0
v -640 -464 0
v -624 -464 0
v -528 -480 0
v -544 -480 0
v -544 -464 0
v -528 -464 0
v -512 -480 0
v -528 -480 0
v -528 -464 0
v -512 -464 0
v -464 -480 0
v -480 -480 0
v -480 -464 0
v -464 -464 0
v -688 -496 0
v -704 -496 0
v -704 -480 0
v -688 -480 0
v -656 -496 0
v -672 -496 0
v -672 -480 0
v -656 -480 0
v -640 -496 0
v -656 -496 0
v -656 -480 0
v -640 -480 0
v -624 -496 0
v -640 -496 0
v -640 -480 0
v -624 -480 0
v -528 -496 0
v -544 -496 0
v -544 -480 0
v -528 -480 0
v -512 -496 0
v -528 -496 0
v -528 -480 0
v -512 -480 0
v -464 -496 0
v -480 -496 0
v -480 -480 0
v -464 -480 0
v -688 -512 0
v -704 -512 0
v -704 -496 0
v -688 -496 0
v -528 -512 0
v -544 -512 0
v -544 -496 0
v -528 -496 0
v -512 -512 0
v -528 -512 0
v -528 -496 0
v -512 -496 0
v -496 -512 0
v -512 -512 0
v -512 -496 0
v -496 -496 0
v -464 -512 0
v -480 -512 0
v -480 -496 0
v -464 -496 0
v -688 -528 0
v -704 -528 0
v -704 -512 0
v -688 -512 0
v -624 -528 0
v -640 -528 0
v -640 -512 0
v -624 -512 0
v -528 -528 0
v -544 -528 0
v -544 -512 0
v -528 -512 0
v -512 -528 0
v -528 -528 0
v -528 -512 0
v -512 -512 0
v -496 -528 0
v -512 -528 0
v -512 -512 0
v -496 -512 0
v -464 -528 0
v -480 -528 0
v -480 -512 0
v -464 -512 0
v -688 -544 0
v -704 -544 0
v -704 -528 0
v -688 -528 0
v -528 -544 0
v -544 -544 0
v -544 -528 0
v -528 -528 0
v -512 -544 0
v -528 -544 0
v -528 -528 0
v -512 -528 0
v -496 -544 0
v -512 -544 0
v -512 -528 0
v -496 -528 0
v -464 -544 0
v -480 -544 0
v -480 -528 0
v -464 -528 0
v -688 -560 0
v -704 -560 0
v -704 -544 0
v -688 -544 0
v -464 -560 0
v -480 -560 0
v -480 -544 0
v -464 -544 0
v -688 -576 0
v -704 -576 0
v -704 -560 0
v -688 -560 0
v -672 -576 0
v -688 -576 0
v -688 -560 0
v -672 -560 0
v -528 -576 0
v -544 -576 0
v -544 -560 0
v -528 -560 0
v -480 -576 0
v -496 -576 0
v -496 -560 0
v -480 -560 0
v -464 -576 0
v -480 -576 0
v -480 -560 0
v -464 -560 0
v -672 -592 0
v -688 -592 0
v -688 -576 0
v -672 -576 0
v -656 -592 0
v -672 -592 0
v -672 -576 0
v -656 -576 0
v -496 -592 0
v -512 -592 0
v -512 -576 0
v -496 -576 0
v -480 -592 0
v -496 -592 0
v -496 -576 0
v -480 -576 0
v -656 -608 0
v -672 -608 0
v -672 -592 0
v -656 -592 0
v -640 -608 0
v -656 -608 0
v -656 -592 0
v -640 -592 0
v -512 -608 0
v -528 -608 0
v -528 -592 0
v -512 -592 0
v -496 -608 0
v -512 -608 0
v -512 -592 0
v -496 -592 0
v -640 -624 0
v -656 -624 0
v -656 -608 0
v -640 -608 0
v -624 -624 0
v -640 -624 0
v -640 -608 0
v -624 -608 0
v -608 -624 0
v -624 -624 0
v -624 -608 0
v -608 -608 0
v -592 -624 0
v -608 -624 0
v -608 -608 0
v -592 -608 0
v -576 -624 0
v -592 -624 0
v -592 -608 0
v -576 -608 0
v -560 -624 0
v -576 -624 0
v -576 -608 0
v -560 -608 0
v -544 -624 0
v -560 -624 0
v -560 -608 0
v -544 -608 0
v -528 -624 0
v -544 -624 0
v -544 -608 0
v -528 -608 0
v -512 -624 0
v -528 -624 0
v -528 -608 0
v -512 -608 0
v -640 -640 0
v -656 -640 0
v -656 -624 0
v -640 -624 0
v -512 -640 0
v -528 -640 0
v -528 -624 0
v -512 -624 0
v -640 -656 0
v -656 -656 0
v -656 -640 0
v -640 -640 0
v -512 -656 0
v -528 -656 0
v -528 -640 0
v -512 -640 0
v -640 -672 0
v -656 -672 0
v -656 -656 0
v -640 -656 0
v -512 -672 0
v -528 -672 0
v -528 -656 0
v -512 -656 0
v -640 -688 0
v -656 -688 0
v -656 -672 0
v -640 -672 0
v -624 -688 0
v -640 -688 0
v -640 -672 0
v -624 -672 0
v -608 -688 0
v -624 -688 0
v -624 -672 0
v -608 -672 0
v -512 -688 0
v -528 -688 0
v -528 -672 0
v -512 -672 0
v -640 -704 0
v -656 -704 0
v -656 -688 0
v -640 -688 0
v -624 -704 0
v -640 -704 0
v -640 -688 0
v -624 -688 0
v -608 -704 0
v -624 -704 0
v -624 -688 0
v -608 -688 0
v -592 -704 0
v -608 -704 0
v -608 -688 0
v -592 -688 0
v -576 -704 0
v -592 -704 0
v -592 -688 0
v -576 -688 0
v -560 -704 0
v -576 -704 0
v -576 -688 0
v -560 -688 0
v -544 -704 0
v -560 -704 0
v -560 -688 0
v -544 -688 0
v -528 -704 0
v -544 -704 0
v -544 -688 0
v -528 -688 0
v -512 -704 0
v -528 -704 0
v -528 -688 0
v -512 -688 0

# Texture cooridinates (Count = 72)
vt 0.125 0.96
vt 0.15 0.96
vt 0.15 1
vt 0.125 1
vt 0.05 0.88
vt 0.075 0.88
vt 0.075 0.92
vt 0.05 0.92
vt 0.1 0.96
vt 0.1 1
vt 0.025 0.92
vt 0.05 0.96
vt 0.025 0.96
vt 0.1 0.92
vt 0.075 0.96
vt 0.375 0.8
vt 0.4 0.8
vt 0.4 0.84
vt 0.375 0.84
vt 0.35 0.8
vt 0.35 0.84
vt 0.275 0.72
vt 0.3 0.72
vt 0.3 0.76
vt 0.275 0.76
vt 0.075 0.72
vt 0.1 0.72
vt 0.1 0.76
vt 0.075 0.76
vt 0.05 0.72
vt 0.05 0.76
vt 0.05 0.68
vt 0.075 0.68
vt 0.025 0.68
vt 0.025 0.72
vt 0 0.68
vt 0 0.72
vt 0.025 0.76
vt 0.325 0.72
vt 0.35 0.72
vt 0.35 0.76
vt 0.325 0.76
vt 0.3 0.8
vt 0.275 0.8
vt 0.125 0.8
vt 0.15 0.8
vt 0.15 0.84
vt 0.125 0.84
vt 0.05 0.64
vt 0.075 0.64
vt 0.025 0.64
vt 0 0.64
vt 0.325 0.8
vt 0.05 0.6
vt 0.075 0.6
vt 0.025 0.6
vt 0 0.6
vt 0.2 0.76
vt 0.225 0.76
vt 0.225 0.8
vt 0.2 0.8
vt 0.175 0.76
vt 0.175 0.8
vt 0.2 0.72
vt 0.225 0.72
vt 0.175 0.72
vt 0.375 0.76
vt 0.4 0.76
vt 0.3 0.84
vt 0.275 0.84
vt 0.175 0.84
vt 0.325 0.84

# Normal
vn 0 0 -1

# Mesh description
g cave_mesh_0002

# Faces
f 1/1/1 2/2/1 3/3/1 4/4/1
f 5/5/1 6/6/1 7/7/1 8/8/1
f 9/5/1 10/6/1 11/7/1 12/8/1
f 13/5/1 14/6/1 15/7/1 16/8/1
f 17/5/1 18/6/1 19/7/1 20/8/1
f 21/5/1 22/6/1 23/7/1 24/8/1
f 25/5/1 26/6/1 27/7/1 28/8/1
f 29/5/1 30/6/1 31/7/1 32/8/1
f 33/9/1 34/1/1 35/4/1 36/10/1
f 37/11/1 38/8/1 39/12/1 40/13/1
f 41/7/1 42/14/1 43/9/1 44/15/1
f 45/16/1 46/17/1 47/18/1 48/19/1
f 49/20/1 50/16/1 51/19/1 52/21/1
f 53/16/1 54/17/1 55/18/1 56/19/1
f 57/22/1 58/23/1 59/24/1 60/25/1
f 61/26/1 62/27/1 63/28/1 64/29/1
f 65/30/1 66/26/1 67/29/1 68/31/1
f 69/30/1 70/26/1 71/29/1 72/31/1
f 73/32/1 74/33/1 75/26/1 76/30/1
f 77/34/1 78/32/1 79/30/1 80/35/1
f 81/36/1 82/34/1 83/35/1 84/37/1
f 85/35/1 86/30/1 87/31/1 88/38/1
f 89/39/1 90/40/1 91/41/1 92/42/1
f 93/20/1 94/16/1 95/19/1 96/21/1
f 97/25/1 98/24/1 99/43/1 100/44/1
f 101/45/1 102/46/1 103/47/1 104/48/1
f 105/49/1 106/50/1 107/33/1 108/32/1
f 109/51/1 110/49/1 111/32/1 112/34/1
f 113/52/1 114/51/1 115/34/1 116/36/1
f 117/42/1 118/41/1 119/20/1 120/53/1
f 121/16/1 122/17/1 123/18/1 124/19/1
f 125/22/1 126/23/1 127/24/1 128/25/1
f 129/54/1 130/55/1 131/50/1 132/49/1
f 133/56/1 134/54/1 135/49/1 136/51/1
f 137/57/1 138/56/1 139/51/1 140/52/1
f 141/39/1 142/40/1 143/41/1 144/42/1
f 145/20/1 146/16/1 147/19/1 148/21/1
f 149/16/1 150/17/1 151/18/1 152/19/1
f 153/22/1 154/23/1 155/24/1 156/25/1
f 157/32/1 158/33/1 159/26/1 160/30/1
f 161/34/1 162/32/1 163/30/1 164/35/1
f 165/36/1 166/34/1 167/35/1 168/37/1
f 169/39/1 170/40/1 171/41/1 172/42/1
f 173/20/1 174/16/1 175/19/1 176/21/1
f 177/25/1 178/24/1 179/43/1 180/44/1
f 181/49/1 182/50/1 183/33/1 184/32/1
f 185/51/1 186/49/1 187/32/1 188/34/1
f 189/52/1 190/51/1 191/34/1 192/36/1
f 193/58/1 194/59/1 195/60/1 196/61/1
f 197/62/1 198/58/1 199/61/1 200/63/1
f 201/42/1 202/41/1 203/20/1 204/53/1
f 205/25/1 206/24/1 207/43/1 208/44/1
f 209/54/1 210/55/1 211/50/1 212/49/1
f 213/56/1 214/54/1 215/49/1 216/51/1
f 217/57/1 218/56/1 219/51/1 220/52/1
f 221/64/1 222/65/1 223/59/1 224/58/1
f 225/66/1 226/64/1 227/58/1 228/62/1
f 229/42/1 230/41/1 231/20/1 232/53/1
f 233/25/1 234/24/1 235/43/1 236/44/1
f 237/32/1 238/33/1 239/26/1 240/30/1
f 241/34/1 242/32/1 243/30/1 244/35/1
f 245/36/1 246/34/1 247/35/1 248/37/1
f 249/42/1 250/41/1 251/20/1 252/53/1
f 253/25/1 254/24/1 255/43/1 256/44/1
f 257/45/1 258/46/1 259/47/1 260/48/1
f 261/49/1 262/50/1 263/33/1 264/32/1
f 265/51/1 266/49/1 267/32/1 268/34/1
f 269/52/1 270/51/1 271/34/1 272/36/1
f 273/42/1 274/41/1 275/20/1 276/53/1
f 277/25/1 278/24/1 279/43/1 280/44/1
f 281/54/1 282/55/1 283/50/1 284/49/1
f 285/56/1 286/54/1 287/49/1 288/51/1
f 289/57/1 290/56/1 291/51/1 292/52/1
f 293/42/1 294/41/1 295/20/1 296/53/1
f 297/25/1 298/24/1 299/43/1 300/44/1
f 301/42/1 302/41/1 303/20/1 304/53/1
f 305/67/1 306/68/1 307/17/1 308/16/1
f 309/44/1 310/43/1 311/69/1 312/70/1
f 313/46/1 314/63/1 315/71/1 316/47/1
f 317/53/1 318/20/1 319/21/1 320/72/1
f 321/41/1 322/67/1 323/16/1 324/20/1
f 325/67/1 326/68/1 327/17/1 328/16/1
f 329/44/1 330/43/1 331/69/1 332/70/1
f 333/53/1 334/20/1 335/21/1 336/72/1
f 337/41/1 338/67/1 339/16/1 340/20/1
f 341/67/1 342/68/1 343/17/1 344/16/1
f 345/44/1 346/43/1 347/69/1 348/70/1
f 349/53/1 350/20/1 351/21/1 352/72/1
f 353/41/1 354/67/1 355/16/1 356/20/1
f 357/67/1 358/68/1 359/17/1 360/16/1
f 361/43/1 362/53/1 363/72/1 364/69/1
f 365/43/1 366/53/1 367/72/1 368/69/1
f 369/43/1 370/53/1 371/72/1 372/69/1
f 373/43/1 374/53/1 375/72/1 376/69/1
f 377/43/1 378/53/1 379/72/1 380/69/1
f 381/43/1 382/53/1 383/72/1 384/69/1
f 385/43/1 386/53/1 387/72/1 388/69/1
f 389/41/1 390/67/1 391/16/1 392/20/1
f 393/24/1 394/42/1 395/53/1 396/43/1
f 397/24/1 398/42/1 399/53/1 400/43/1
f 401/24/1 402/42/1 403/53/1 404/43/1
f 405/24/1 406/42/1 407/53/1 408/43/1
f 409/24/1 410/42/1 411/53/1 412/43/1
f 413/24/1 414/42/1 415/53/1 416/43/1
f 417/24/1 418/42/1 419/53/1 420/43/1
f 421/24/1 422/42/1 423/53/1 424/43/1
f 425/24/1 426/42/1 427/53/1 428/43/1
f 429/24/1 430/42/1 431/53/1 432/43/1
f 433/24/1 434/42/1 435/53/1 436/43/1
f 437/24/1 438/42/1 439/53/1 440/43/1
f 441/24/1 442/42/1 443/53/1 444/43/1
f 445/24/1 446/42/1 447/53/1 448/43/1
f 449/24/1 450/42/1 451/53/1 452/43/1
f 453/24/1 454/42/1 455/53/1 456/43/1
f 457/24/1 458/42/1 459/53/1 460/43/1
f 461/24/1 462/42/1 463/53/1 464/43/1
f 465/24/1 466/42/1 467/53/1 468/43/1

