# Tiled2Unity generated file. Do not modify by hand.
# Wavefront file for 'island_mesh_0002.obj'

# Vertices (Count = 232)
v -944 -288 0
v -960 -288 0
v -960 -272 0
v -944 -272 0
v -928 -288 0
v -944 -288 0
v -944 -272 0
v -928 -272 0
v -912 -288 0
v -928 -288 0
v -928 -272 0
v -912 -272 0
v -896 -288 0
v -912 -288 0
v -912 -272 0
v -896 -272 0
v -880 -288 0
v -896 -288 0
v -896 -272 0
v -880 -272 0
v -864 -288 0
v -880 -288 0
v -880 -272 0
v -864 -272 0
v -848 -288 0
v -864 -288 0
v -864 -272 0
v -848 -272 0
v -944 -304 0
v -960 -304 0
v -960 -288 0
v -944 -288 0
v -928 -304 0
v -944 -304 0
v -944 -288 0
v -928 -288 0
v -912 -304 0
v -928 -304 0
v -928 -288 0
v -912 -288 0
v -896 -304 0
v -912 -304 0
v -912 -288 0
v -896 -288 0
v -880 -304 0
v -896 -304 0
v -896 -288 0
v -880 -288 0
v -864 -304 0
v -880 -304 0
v -880 -288 0
v -864 -288 0
v -848 -304 0
v -864 -304 0
v -864 -288 0
v -848 -288 0
v -944 -320 0
v -960 -320 0
v -960 -304 0
v -944 -304 0
v -928 -320 0
v -944 -320 0
v -944 -304 0
v -928 -304 0
v -912 -320 0
v -928 -320 0
v -928 -304 0
v -912 -304 0
v -896 -320 0
v -912 -320 0
v -912 -304 0
v -896 -304 0
v -880 -320 0
v -896 -320 0
v -896 -304 0
v -880 -304 0
v -864 -320 0
v -880 -320 0
v -880 -304 0
v -864 -304 0
v -848 -320 0
v -864 -320 0
v -864 -304 0
v -848 -304 0
v -832 -320 0
v -848 -320 0
v -848 -304 0
v -832 -304 0
v -944 -336 0
v -960 -336 0
v -960 -320 0
v -944 -320 0
v -864 -336 0
v -880 -336 0
v -880 -320 0
v -864 -320 0
v -848 -336 0
v -864 -336 0
v -864 -320 0
v -848 -320 0
v -832 -336 0
v -848 -336 0
v -848 -320 0
v -832 -320 0
v -944 -352 0
v -960 -352 0
v -960 -336 0
v -944 -336 0
v -928 -352 0
v -944 -352 0
v -944 -336 0
v -928 -336 0
v -912 -352 0
v -928 -352 0
v -928 -336 0
v -912 -336 0
v -896 -352 0
v -912 -352 0
v -912 -336 0
v -896 -336 0
v -880 -352 0
v -896 -352 0
v -896 -336 0
v -880 -336 0
v -864 -352 0
v -880 -352 0
v -880 -336 0
v -864 -336 0
v -848 -352 0
v -864 -352 0
v -864 -336 0
v -848 -336 0
v -832 -352 0
v -848 -352 0
v -848 -336 0
v -832 -336 0
v -960 -368 0
v -976 -368 0
v -976 -352 0
v -960 -352 0
v -944 -368 0
v -960 -368 0
v -960 -352 0
v -944 -352 0
v -928 -368 0
v -944 -368 0
v -944 -352 0
v -928 -352 0
v -912 -368 0
v -928 -368 0
v -928 -352 0
v -912 -352 0
v -896 -368 0
v -912 -368 0
v -912 -352 0
v -896 -352 0
v -880 -368 0
v -896 -368 0
v -896 -352 0
v -880 -352 0
v -864 -368 0
v -880 -368 0
v -880 -352 0
v -864 -352 0
v -848 -368 0
v -864 -368 0
v -864 -352 0
v -848 -352 0
v -832 -368 0
v -848 -368 0
v -848 -352 0
v -832 -352 0
v -960 -384 0
v -976 -384 0
v -976 -368 0
v -960 -368 0
v -944 -384 0
v -960 -384 0
v -960 -368 0
v -944 -368 0
v -928 -384 0
v -944 -384 0
v -944 -368 0
v -928 -368 0
v -912 -384 0
v -928 -384 0
v -928 -368 0
v -912 -368 0
v -896 -384 0
v -912 -384 0
v -912 -368 0
v -896 -368 0
v -880 -384 0
v -896 -384 0
v -896 -368 0
v -880 -368 0
v -864 -384 0
v -880 -384 0
v -880 -368 0
v -864 -368 0
v -848 -384 0
v -864 -384 0
v -864 -368 0
v -848 -368 0
v -832 -384 0
v -848 -384 0
v -848 -368 0
v -832 -368 0
v -944 -400 0
v -960 -400 0
v -960 -384 0
v -944 -384 0
v -928 -400 0
v -944 -400 0
v -944 -384 0
v -928 -384 0
v -912 -400 0
v -928 -400 0
v -928 -384 0
v -912 -384 0
v -880 -400 0
v -896 -400 0
v -896 -384 0
v -880 -384 0
v -864 -400 0
v -880 -400 0
v -880 -384 0
v -864 -384 0
v -848 -400 0
v -864 -400 0
v -864 -384 0
v -848 -384 0

# Texture cooridinates (Count = 47)
vt 0.05 0.6666666
vt 0.075 0.6666666
vt 0.075 0.6944444
vt 0.05 0.6944444
vt 0.025 0.6666666
vt 0.025 0.6944444
vt 0 0.6666666
vt 0 0.6944444
vt 0.15 0.7222222
vt 0.175 0.7222222
vt 0.175 0.75
vt 0.15 0.75
vt 0.125 0.7222222
vt 0.125 0.75
vt 0.1 0.7222222
vt 0.1 0.75
vt 0.15 0.6944444
vt 0.175 0.6944444
vt 0.1 0.6944444
vt 0.125 0.6944444
vt 0.125 0.6666666
vt 0.15 0.6666666
vt 0.1 0.6388889
vt 0.125 0.6388889
vt 0.1 0.6666666
vt 0.175 0.6666666
vt 0.175 0.6111111
vt 0.2 0.6111111
vt 0.2 0.6388889
vt 0.175 0.6388889
vt 0.15 0.6111111
vt 0.15 0.6388889
vt 0.125 0.6111111
vt 0.2 0.6666666
vt 0.2 0.6944444
vt 0.225 0.6666666
vt 0.225 0.6944444
vt 0.1 0.6111111
vt 0.1 0.5833334
vt 0.125 0.5833334
vt 0.175 0.5833334
vt 0.2 0.5833334
vt 0.15 0.5833334
vt 0.1 0.5555556
vt 0.125 0.5555556
vt 0.15 0.5555556
vt 0.175 0.5555556

# Normal
vn 0 0 -1

# Mesh description
g island_mesh_0002

# Faces
f 1/1/1 2/2/1 3/3/1 4/4/1
f 5/5/1 6/1/1 7/4/1 8/6/1
f 9/5/1 10/1/1 11/4/1 12/6/1
f 13/5/1 14/1/1 15/4/1 16/6/1
f 17/5/1 18/1/1 19/4/1 20/6/1
f 21/5/1 22/1/1 23/4/1 24/6/1
f 25/7/1 26/5/1 27/6/1 28/8/1
f 29/9/1 30/10/1 31/11/1 32/12/1
f 33/13/1 34/9/1 35/12/1 36/14/1
f 37/13/1 38/9/1 39/12/1 40/14/1
f 41/13/1 42/9/1 43/12/1 44/14/1
f 45/13/1 46/9/1 47/12/1 48/14/1
f 49/13/1 50/9/1 51/12/1 52/14/1
f 53/15/1 54/13/1 55/14/1 56/16/1
f 57/17/1 58/18/1 59/10/1 60/9/1
f 61/13/1 62/9/1 63/12/1 64/14/1
f 65/13/1 66/9/1 67/12/1 68/14/1
f 69/13/1 70/9/1 71/12/1 72/14/1
f 73/13/1 74/9/1 75/12/1 76/14/1
f 77/13/1 78/9/1 79/12/1 80/14/1
f 81/19/1 82/20/1 83/13/1 84/15/1
f 85/21/1 86/22/1 87/17/1 88/20/1
f 89/17/1 90/18/1 91/10/1 92/9/1
f 93/13/1 94/9/1 95/12/1 96/14/1
f 97/19/1 98/20/1 99/13/1 100/15/1
f 101/23/1 102/24/1 103/21/1 104/25/1
f 105/22/1 106/26/1 107/18/1 108/17/1
f 109/21/1 110/22/1 111/17/1 112/20/1
f 113/21/1 114/22/1 115/17/1 116/20/1
f 117/21/1 118/22/1 119/17/1 120/20/1
f 121/21/1 122/22/1 123/17/1 124/20/1
f 125/21/1 126/22/1 127/17/1 128/20/1
f 129/25/1 130/21/1 131/20/1 132/19/1
f 133/23/1 134/24/1 135/21/1 136/25/1
f 137/27/1 138/28/1 139/29/1 140/30/1
f 141/31/1 142/27/1 143/30/1 144/32/1
f 145/33/1 146/31/1 147/32/1 148/24/1
f 149/33/1 150/31/1 151/32/1 152/24/1
f 153/33/1 154/31/1 155/32/1 156/24/1
f 157/26/1 158/34/1 159/35/1 160/18/1
f 161/34/1 162/36/1 163/37/1 164/35/1
f 165/38/1 166/33/1 167/24/1 168/23/1
f 169/39/1 170/40/1 171/33/1 172/38/1
f 173/41/1 174/42/1 175/28/1 176/27/1
f 177/43/1 178/41/1 179/27/1 180/31/1
f 181/40/1 182/43/1 183/31/1 184/33/1
f 185/40/1 186/43/1 187/31/1 188/33/1
f 189/43/1 190/41/1 191/27/1 192/31/1
f 193/30/1 194/29/1 195/34/1 196/26/1
f 197/32/1 198/30/1 199/26/1 200/22/1
f 201/39/1 202/40/1 203/33/1 204/38/1
f 205/44/1 206/45/1 207/40/1 208/39/1
f 209/46/1 210/47/1 211/41/1 212/43/1
f 213/45/1 214/46/1 215/43/1 216/40/1
f 217/45/1 218/46/1 219/43/1 220/40/1
f 221/45/1 222/46/1 223/43/1 224/40/1
f 225/45/1 226/46/1 227/43/1 228/40/1
f 229/44/1 230/45/1 231/40/1 232/39/1

